<?xml version="1.0" encoding="utf-8"?>
<svg viewBox="0 0 500 500" xmlns="http://www.w3.org/2000/svg" xmlns:bx="https://boxy-svg.com">
  <ellipse style="stroke: rgb(0, 0, 0); fill: none; stroke-width: 30px;" cx="250.386" cy="249.727" rx="233.091" ry="233.091"/>
  <path d="M 658.425 307.475 H 990.268 L 982.072 276.739 L 1043.544 317.72 L 982.072 358.701 L 990.268 327.966 H 658.425 V 307.475 Z" style="stroke: rgb(0, 0, 0); stroke-width: 15px;" transform="matrix(-0.705479, 0.708731, -0.708731, -0.705479, 1098.001465, -152.704636)" bx:shape="arrow 658.425 276.739 385.119 81.962 20.491 61.472 8.196 1@a73dd7f8"/>
  <path d="M 658.423 307.476 H 902.189 L 893.993 276.74 L 955.465 317.721 L 893.993 358.702 L 902.189 327.967 H 658.423 V 307.476 Z" style="stroke: rgb(0, 0, 0); stroke-width: 15px;" transform="matrix(-0.70947, 0.704736, -0.704736, -0.70947, 999.229004, -207.220322)" bx:shape="arrow 658.423 276.74 297.042 81.962 20.491 61.472 8.196 1@95ec4151"/>
  <path d="M 658.423 307.476 H 902.189 L 893.993 276.74 L 955.465 317.721 L 893.993 358.702 L 902.189 327.967 H 658.423 V 307.476 Z" style="stroke: rgb(0, 0, 0); stroke-width: 15px;" transform="matrix(-0.70947, 0.704736, -0.704736, -0.70947, 1163.931152, -48.499699)" bx:shape="arrow 658.423 276.74 297.042 81.962 20.491 61.472 8.196 1@95ec4151"/>
</svg>